<svg width="207" height="54" viewBox="0 0 207 54" fill="none" xmlns="http://www.w3.org/2000/svg">
<path d="M61.0454 8.9364V33.6921L46.1919 20.7048V33.7765H40.9595V9.06768L55.7379 22.1301V8.9364H61.0454Z" fill="#001777"/>
<path d="M84.3945 29.1911V33.7765H66.1747V8.9364H84.3945V13.5125H71.4071V19.0731H81.0187V23.5554H71.4071V29.1817H84.3945V29.1911Z" fill="#001777"/>
<path d="M98.6292 34.1234C96.9584 34.1354 95.3036 33.7968 93.7718 33.1294C92.2852 32.4847 90.9357 31.5617 89.7959 30.41C87.4387 28.0158 86.124 24.7865 86.1388 21.4267C86.1265 18.0701 87.441 14.8446 89.7959 12.4527C90.9357 11.301 92.2852 10.378 93.7718 9.73334C95.3073 9.07765 96.9596 8.73962 98.6292 8.73962C100.299 8.73962 101.951 9.07765 103.487 9.73334C104.972 10.3804 106.321 11.3032 107.462 12.4527C109.817 14.8446 111.132 18.0701 111.12 21.4267C111.134 24.7865 109.82 28.0158 107.462 30.41C106.321 31.5596 104.972 32.4823 103.487 33.1294C101.955 33.7968 100.3 34.1354 98.6292 34.1234ZM98.6292 13.9718C97.6607 13.9622 96.7014 14.1604 95.816 14.5532C94.9625 14.9349 94.1916 15.4796 93.5468 16.1567C92.89 16.8512 92.3684 17.6622 92.0089 18.5479C91.2586 20.4035 91.2586 22.478 92.0089 24.3336C92.3711 25.2095 92.8925 26.0107 93.5468 26.6966C94.1887 27.3795 94.9601 27.9278 95.816 28.3095C96.6944 28.6932 97.6426 28.8912 98.6011 28.8912C99.5596 28.8912 100.508 28.6932 101.386 28.3095C102.241 27.9255 103.012 27.3775 103.655 26.6966C104.306 26.0082 104.827 25.2077 105.193 24.3336C105.943 22.478 105.943 20.4035 105.193 18.5479C104.83 17.664 104.309 16.8538 103.655 16.1567C103.009 15.4816 102.238 14.9372 101.386 14.5532C100.518 14.1682 99.5788 13.9701 98.6292 13.9718Z" fill="#001777"/>
<path d="M124.716 21.3987L135.031 33.7765H128.767L121.613 25.1214L119.221 28.0096V33.7765H114.401V8.9364H119.203V20.4985L128.795 8.9364H135.031L124.716 21.3987Z" fill="#001777"/>
<path d="M153.495 33.7767L148.647 26.1812C148.131 26.1812 147.569 26.1812 146.95 26.1812H143.33V33.7767H138.098V8.93658H149.828C150.932 8.92925 152.025 9.14568 153.042 9.5728C154.059 9.99991 154.978 10.6288 155.745 11.4215C156.507 12.2157 157.114 13.1441 157.537 14.1597C157.971 15.2252 158.191 16.366 158.184 17.5167C158.233 18.987 157.837 20.438 157.049 21.6802C156.255 22.8631 155.227 23.8715 154.029 24.6433L160.068 33.7767H153.495ZM143.33 21.5864H146.059H148.159C148.701 21.5962 149.243 21.5743 149.782 21.5207C150.228 21.4741 150.66 21.336 151.05 21.1149C151.441 20.8939 151.781 20.5947 152.051 20.2361C152.66 19.4277 152.971 18.4341 152.932 17.4229C152.987 16.4555 152.672 15.5034 152.051 14.7598C151.461 14.1077 150.655 13.6913 149.782 13.5877C149.397 13.5877 148.844 13.522 148.131 13.5126C147.419 13.5033 146.697 13.5126 145.984 13.5126H143.293L143.33 21.5864Z" fill="#001777"/>
<path d="M181.317 29.1911V33.7765H163.06V8.9364H181.317V13.5125H168.292V19.0731H177.904V23.5554H168.292V29.1817H181.317V29.1911Z" fill="#001777"/>
<path d="M195.317 8.83303C196.859 9.00052 198.356 9.45198 199.734 10.1646C201.076 10.8484 202.281 11.7734 203.288 12.8933C204.304 14.0245 205.114 15.326 205.679 16.738C206.265 18.1988 206.564 19.7588 206.56 21.3328C206.573 22.8867 206.283 24.4281 205.707 25.8714C205.164 27.2534 204.372 28.5246 203.372 29.6222C202.36 30.7303 201.16 31.6509 199.828 32.3416C198.416 33.0725 196.891 33.5577 195.317 33.7763C194.406 33.8946 193.488 33.9603 192.57 33.9732C191.51 33.9732 190.479 33.9732 189.485 33.9732C188.331 33.9732 187.15 33.8795 185.94 33.8138V8.87054C187.196 8.8049 188.425 8.75801 189.616 8.73926C190.629 8.73926 191.669 8.73926 192.72 8.73926C193.77 8.73926 194.633 8.76739 195.317 8.83303ZM195.317 28.722C196.133 28.5899 196.914 28.2967 197.615 27.8593C198.316 27.4234 198.93 26.8605 199.424 26.1996C199.93 25.5168 200.328 24.7611 200.606 23.9584C200.892 23.119 201.037 22.2383 201.037 21.3516C201.04 20.4783 200.888 19.6115 200.587 18.7916C200.299 17.993 199.884 17.2458 199.359 16.5786C198.83 15.9353 198.196 15.3867 197.483 14.9563C196.806 14.5352 196.055 14.2457 195.27 14.103C194.886 14.0334 194.497 13.9958 194.107 13.9905C193.648 13.9905 193.17 13.9905 192.748 13.9905C192.326 13.9905 191.716 14.0467 191.182 14.0842V28.722C191.651 28.7689 192.12 28.797 192.616 28.8252C193.113 28.8533 193.479 28.8252 193.948 28.8252C194.4 28.8191 194.851 28.7847 195.298 28.722H195.317Z" fill="#001777"/>
<path d="M41.5502 44.2229H43.7351C46.1262 44.2229 47.4859 45.32 47.4859 47.3267C47.4859 49.3335 46.145 50.44 43.7351 50.44H42.9005V52.8968H41.5502V44.2229ZM43.6788 49.2491C45.3854 49.2491 46.0793 48.6489 46.0793 47.3736C46.0793 46.0983 45.3761 45.4982 43.6788 45.4982H42.9005V49.2491H43.6788Z" fill="#FF9700"/>
<path d="M54.3125 48.564C54.307 47.6786 54.5643 46.8114 55.052 46.0724C55.5397 45.3333 56.2357 44.7556 57.052 44.4125C57.8683 44.0694 58.768 43.9762 59.6372 44.1449C60.5065 44.3135 61.3061 44.7363 61.9349 45.3598C62.5636 45.9833 62.9931 46.7793 63.1691 47.6471C63.345 48.5149 63.2594 49.4154 62.9232 50.2345C62.5869 51.0537 62.0151 51.7546 61.2802 52.2484C60.5452 52.7423 59.6803 53.0069 58.7948 53.0088C58.2055 53.0228 57.6195 52.9176 57.0719 52.6996C56.5242 52.4817 56.0262 52.1554 55.6077 51.7404C55.1891 51.3254 54.8587 50.8301 54.6361 50.2843C54.4136 49.7385 54.3035 49.1534 54.3125 48.564ZM61.8799 48.564C61.8523 47.9583 61.6475 47.3741 61.2907 46.8839C60.934 46.3937 60.4411 46.019 59.8732 45.8065C59.3054 45.594 58.6876 45.553 58.0967 45.6886C57.5057 45.8242 56.9676 46.1303 56.5492 46.5691C56.1308 47.0079 55.8505 47.5599 55.7431 48.1566C55.6357 48.7533 55.706 49.3685 55.9452 49.9256C56.1844 50.4827 56.582 50.9573 57.0886 51.2903C57.5952 51.6234 58.1885 51.8004 58.7948 51.7991C59.2145 51.8036 59.6306 51.7219 60.0173 51.5591C60.4041 51.3963 60.7534 51.1558 61.0435 50.8525C61.3335 50.5492 61.5583 50.1897 61.7038 49.796C61.8493 49.4024 61.9124 48.9831 61.8893 48.564H61.8799Z" fill="#FF9700"/>
<path d="M69.4379 44.2226H70.8538L72.3917 48.8456C72.5511 49.3238 72.7199 50.0834 72.7199 50.0834C72.7199 50.0834 72.9355 49.3426 73.1418 48.8456L75.2142 44.157L77.2959 48.8456C77.4565 49.2501 77.5943 49.6634 77.7085 50.0834C77.7085 50.0834 77.8867 49.3238 78.0461 48.8456L79.584 44.2226H80.8968L77.8961 52.9903H77.7273L75.5799 47.8422C75.4017 47.4202 75.2142 46.7826 75.2142 46.7826C75.2142 46.7826 75.0173 47.4202 74.8391 47.8422L72.6261 53.009H72.4667L69.4379 44.2226Z" fill="#FF9700"/>
<path d="M87.9109 44.2229H93.4153V45.4138H89.2612V48.1426H92.712V49.296H89.2612V51.7153H93.5935V52.8968H87.9109V44.2229Z" fill="#FF9700"/>
<path d="M107.275 52.8968H105.718L104.19 50.3556H102.314V52.8968H100.955V44.2229H103.149C105.54 44.2229 106.9 45.32 106.9 47.308C106.931 47.8382 106.809 48.3662 106.548 48.8287C106.287 49.2911 105.898 49.6683 105.427 49.9148L107.275 52.8968ZM103.149 49.2022C104.874 49.2022 105.559 48.5927 105.559 47.3267C105.559 46.0608 104.846 45.4513 103.149 45.4513H102.389V49.2022H103.149Z" fill="#FF9700"/>
<path d="M124.801 45.4138H122.522V44.2229H128.467V45.4138H126.189V52.9155H124.848L124.801 45.4138Z" fill="#FF9700"/>
<path d="M134.872 48.564C134.866 47.6786 135.124 46.8114 135.611 46.0724C136.099 45.3333 136.795 44.7556 137.611 44.4125C138.428 44.0694 139.327 43.9762 140.197 44.1449C141.066 44.3135 141.865 44.7363 142.494 45.3598C143.123 45.9833 143.552 46.7793 143.728 47.6471C143.904 48.5149 143.819 49.4154 143.482 50.2345C143.146 51.0537 142.574 51.7546 141.839 52.2484C141.105 52.7423 140.24 53.0069 139.354 53.0088C138.765 53.0228 138.179 52.9176 137.631 52.6996C137.084 52.4817 136.586 52.1554 136.167 51.7404C135.748 51.3254 135.418 50.8301 135.195 50.2843C134.973 49.7385 134.863 49.1534 134.872 48.564ZM142.439 48.564C142.412 47.9583 142.207 47.3741 141.85 46.8839C141.493 46.3937 141 46.019 140.433 45.8065C139.865 45.594 139.247 45.553 138.656 45.6886C138.065 45.8242 137.527 46.1303 137.109 46.5691C136.69 47.0079 136.41 47.5599 136.302 48.1566C136.195 48.7533 136.265 49.3685 136.505 49.9256C136.744 50.4827 137.141 50.9573 137.648 51.2903C138.155 51.6234 138.748 51.8004 139.354 51.7991C139.773 51.8023 140.188 51.7197 140.574 51.5563C140.959 51.3929 141.308 51.1522 141.597 50.8491C141.886 50.5459 142.11 50.1868 142.255 49.7938C142.399 49.4008 142.462 48.9823 142.439 48.564Z" fill="#FF9700"/>
<path d="M162.272 49.7175L158.98 44.2131H160.471L162.431 47.8421C162.589 48.1275 162.765 48.4031 162.956 48.6673C163.156 48.4085 163.331 48.1323 163.482 47.8421L165.357 44.2694H166.745L163.594 49.6988V52.9433H162.244L162.272 49.7175Z" fill="#FF9700"/>
<path d="M173.112 48.5643C173.112 45.9762 174.884 44.1101 177.097 44.1101C179.31 44.1101 181.073 45.9855 181.073 48.5643C181.073 51.143 179.301 53.009 177.097 53.009C174.893 53.009 173.112 51.1524 173.112 48.5643ZM179.845 48.5643C179.845 46.6888 178.71 45.3198 177.097 45.3198C175.484 45.3198 174.34 46.717 174.34 48.5643C174.34 50.4116 175.484 51.7994 177.097 51.7994C178.71 51.7994 179.845 50.4116 179.845 48.5643Z" fill="#FF9700"/>
<path d="M188.097 49.8492V44.2229H189.419V49.7742C189.454 50.3082 189.692 50.8088 190.083 51.1744C190.473 51.5401 190.989 51.7435 191.524 51.7435C192.059 51.7435 192.574 51.5401 192.965 51.1744C193.356 50.8088 193.593 50.3082 193.629 49.7742V44.2229H195.045V49.8492C195.045 51.9591 193.47 53.0093 191.594 53.0093C189.719 53.0093 188.097 51.9591 188.097 49.8492Z" fill="#FF9700"/>
<path d="M18.3136 18.2852L7.98936 6.12305L7.97998 10.0146L18.3136 22.2612V18.2852Z" fill="url(#paint0_linear_501_765)"/>
<path d="M18.3136 25.5342V22.2616L7.97996 10.015L7.97058 13.222L18.3136 25.5342Z" fill="url(#paint1_linear_501_765)"/>
<path d="M0.309429 5.17625V32.9421C1.62039 33.654 3.15569 33.8321 4.5948 33.439C6.8547 32.8389 8.21439 31.1229 8.21439 29.6882V2.55064C8.21439 1.61292 7.97058 1.20033 7.08912 1.01278C5.5189 0.880476 3.95454 1.32743 2.69123 2.26932C1.64765 2.86245 0.827418 3.7815 0.356315 4.88555C0.321875 4.97847 0.305947 5.07722 0.309429 5.17625Z" fill="url(#paint2_linear_501_765)"/>
<path d="M18.1167 12.2092V41.6723C19.4294 42.3787 20.9625 42.5565 22.4021 42.1693C24.662 41.5692 26.0217 39.8531 26.0217 38.4184V9.75242C26.0217 8.8147 25.7778 8.40211 24.8964 8.21456C23.3262 8.08226 21.7618 8.52922 20.4985 9.47111C19.3947 10.0596 18.5466 11.0345 18.1167 12.2092Z" fill="url(#paint3_linear_501_765)"/>
<path d="M20.4985 9.47103C19.3805 10.0777 18.5306 11.0815 18.1167 12.2842V41.6722C19.3869 42.3603 20.8678 42.5509 22.2708 42.2067V8.5802C21.6497 8.81246 21.0555 9.11114 20.4985 9.47103Z" fill="url(#paint4_linear_501_765)"/>
<path d="M2.69129 2.26909C1.65384 2.85846 0.837259 3.77052 0.365747 4.86657C0.327563 4.97174 0.308508 5.08289 0.309484 5.19477V32.9418C1.55065 33.6137 2.99411 33.8104 4.3698 33.4951V1.41577C3.78245 1.64175 3.21996 1.9277 2.69129 2.26909Z" fill="url(#paint5_linear_501_765)"/>
<path d="M26.1623 27.7564V32.0699C25.8141 32.6153 25.3458 33.074 24.7932 33.4109C23.945 33.9419 22.9594 34.2117 21.9589 34.1867C20.9585 34.1616 19.9876 33.8429 19.1669 33.2702C17.5634 32.0981 14.4784 28.5816 7.91433 20.7704C1.96921 13.5875 0.36571 11.4214 0 10.9056V7.9237C0 6.58276 0.309447 6.58276 0.309447 6.58276V6.67654C0.309447 6.86408 3.1226 10.4274 7.56738 15.8474C12.0122 21.2674 15.0691 24.7088 16.7758 26.6124C18.4824 28.516 19.9265 29.6506 21.755 29.8194C22.4516 29.8918 23.1553 29.7968 23.8077 29.5424C24.4601 29.288 25.0423 28.8814 25.5059 28.3566C25.6916 28.127 25.8578 27.8823 26.0029 27.6251V27.4939C26.0685 27.4751 26.1623 27.5595 26.1623 27.7564Z" fill="url(#paint6_linear_501_765)"/>
<path d="M7.57676 23.4616C10.9807 27.6344 12.6404 29.5755 16.4944 33.7764C18.548 36.0363 19.7858 36.5896 21.9332 36.7209C22.7085 36.7581 23.4818 36.6138 24.1915 36.2997C24.9013 35.9855 25.5279 35.51 26.0217 34.9111C26.0217 34.9111 26.1623 34.8267 26.1623 34.5172V32.0698C25.8141 32.6152 25.3458 33.0739 24.7932 33.4107C23.9459 33.9441 22.9598 34.2153 21.9588 34.1903C20.9579 34.1653 19.9866 33.8451 19.1669 33.2701C17.5634 32.0979 14.4784 28.5815 7.91433 20.7703C1.96921 13.578 0.36571 11.4213 0 10.9055V14.0844C0.00105483 14.1378 0.0173184 14.1899 0.0468859 14.2344C0.384464 14.6376 2.40993 17.1788 7.57676 23.4616Z" fill="url(#paint7_linear_501_765)"/>
<defs>
<linearGradient id="paint0_linear_501_765" x1="-6.45149" y1="15.9785" x2="26.4155" y2="12.9871" gradientUnits="userSpaceOnUse">
<stop offset="0.19" stop-color="#FFEAA9"/>
<stop offset="0.44" stop-color="#FFD348"/>
<stop offset="0.68" stop-color="#FF9B1C"/>
<stop offset="1" stop-color="#FF4A00"/>
</linearGradient>
<linearGradient id="paint1_linear_501_765" x1="1.21902" y1="-5.04472" x2="14.3189" y2="20.0111" gradientUnits="userSpaceOnUse">
<stop offset="0.19" stop-color="#FFEAA9"/>
<stop offset="0.44" stop-color="#FFD348"/>
<stop offset="0.68" stop-color="#FF9B1C"/>
<stop offset="1" stop-color="#FF4A00"/>
</linearGradient>
<linearGradient id="paint2_linear_501_765" x1="2.51307" y1="17.2353" x2="8.28003" y2="17.3947" gradientUnits="userSpaceOnUse">
<stop offset="0.32" stop-color="#FFA200"/>
<stop offset="0.51" stop-color="#FF8E00"/>
<stop offset="0.88" stop-color="#FF5B00"/>
<stop offset="1" stop-color="#FF4A00"/>
</linearGradient>
<linearGradient id="paint3_linear_501_765" x1="19.0263" y1="25.3748" x2="26.7156" y2="25.1404" gradientUnits="userSpaceOnUse">
<stop offset="0.43" stop-color="#FFA200"/>
<stop offset="0.55" stop-color="#FF9200"/>
<stop offset="0.77" stop-color="#FF6800"/>
<stop offset="0.91" stop-color="#FF4A00"/>
</linearGradient>
<linearGradient id="paint4_linear_501_765" x1="12.9311" y1="14.9567" x2="25.9748" y2="33.2234" gradientUnits="userSpaceOnUse">
<stop offset="0.09" stop-color="#FFB816"/>
<stop offset="0.29" stop-color="#FFA200"/>
<stop offset="0.34" stop-color="#FF8D00"/>
<stop offset="0.44" stop-color="#FF7000"/>
<stop offset="0.54" stop-color="#FF5B00"/>
<stop offset="0.64" stop-color="#FF4E00"/>
<stop offset="0.73" stop-color="#FF4A00"/>
<stop offset="1" stop-color="#F03B00"/>
</linearGradient>
<linearGradient id="paint5_linear_501_765" x1="2.33495" y1="40.0122" x2="2.33495" y2="1.79086" gradientUnits="userSpaceOnUse">
<stop stop-color="#FFA200"/>
<stop offset="0.02" stop-color="#FFA000"/>
<stop offset="0.31" stop-color="#FF7B00"/>
<stop offset="0.58" stop-color="#FF6000"/>
<stop offset="0.82" stop-color="#FF5000"/>
<stop offset="1" stop-color="#FF4A00"/>
</linearGradient>
<linearGradient id="paint6_linear_501_765" x1="-0.759552" y1="57.8384" x2="20.4704" y2="-0.778318" gradientUnits="userSpaceOnUse">
<stop offset="0.01" stop-color="#FFD348"/>
<stop offset="0.28" stop-color="#FF4A00"/>
<stop offset="0.57" stop-color="#FFD348"/>
<stop offset="0.68" stop-color="#FF9B1C"/>
<stop offset="1" stop-color="#FF4A00"/>
</linearGradient>
<linearGradient id="paint7_linear_501_765" x1="-2.75689" y1="-1.07851" x2="26.0404" y2="42.8911" gradientUnits="userSpaceOnUse">
<stop stop-color="#FFEAA9"/>
<stop offset="0.15" stop-color="#FF4A00"/>
<stop offset="0.37" stop-color="#FFD348"/>
<stop offset="0.58" stop-color="#FF9B1C"/>
<stop offset="0.9" stop-color="#FF4A00"/>
</linearGradient>
</defs>
</svg>
